<svg xmlns="http://www.w3.org/2000/svg" viewBox="0 0 64 64">
<path d="M32 4 C40 10 44 18 44 30 L20 30 C20 18 24 10 32 4 Z" fill="#F2A08A" stroke="#2B2B2B" stroke-width="2.5" stroke-linejoin="round" stroke-linecap="round"/>
<path d="M20 22 L12 28 L20 30 Z M44 22 L52 28 L44 30 Z" fill="#F2A08A" stroke="#2B2B2B" stroke-width="2.5" stroke-linejoin="round" stroke-linecap="round"/>
<path d="M22 30 L22 52 M27 30 L26 58 M32 30 L32 56 M37 30 L38 58 M42 30 L42 52" fill="none" stroke="#2B2B2B" stroke-width="5" stroke-linecap="round"/>
<path d="M22 30 L22 52 M27 30 L26 58 M32 30 L32 56 M37 30 L38 58 M42 30 L42 52" fill="none" stroke="#F2A08A" stroke-width="2.2" stroke-linecap="round"/>
<circle cx="27" cy="24" r="2" fill="#2B2B2B"/><circle cx="37" cy="24" r="2" fill="#2B2B2B"/></svg>
