<svg xmlns="http://www.w3.org/2000/svg" viewBox="0 0 64 64">
<path d="M20 30 C18 20 26 18 24 8 M30 30 C28 20 36 18 34 8 M40 30 C38 20 46 18 44 8" fill="none" stroke="#2B2B2B" stroke-width="9" stroke-linecap="round"/>
<path d="M20 30 C18 20 26 18 24 8 M30 30 C28 20 36 18 34 8 M40 30 C38 20 46 18 44 8" fill="none" stroke="#FBF1D2" stroke-width="5" stroke-linecap="round"/>
<path d="M8 30 L56 30 C56 46 46 56 32 56 C18 56 8 46 8 30 Z" fill="#E9F0F7" stroke="#2B2B2B" stroke-width="2.5" stroke-linejoin="round" stroke-linecap="round"/>
<path d="M14 40 C24 44 40 44 50 40" fill="none" stroke="#2F6FB5" stroke-width="2.5" stroke-linecap="round"/></svg>
